<svg width="122" height="94" viewBox="0 0 122 94" fill="none" xmlns="http://www.w3.org/2000/svg">
<path d="M4.33732 69.3284C-0.371314 66.6798 -0.322266 59.8866 0.290837 56.8211C39.8973 52.2841 119.478 44.7552 120.949 50.9353C122.421 57.1154 119.601 61.8486 118.007 63.4426C108.442 70.7999 87.0326 86.6915 77.9096 91.4001C68.7867 96.1088 57.1867 93.3621 52.5272 91.4001C38.4258 85.1465 9.04595 71.977 4.33732 69.3284Z" fill="#5F5AB5"/>
<path d="M2.86509 47.6247C-0.372091 50.5676 0.290416 55.3498 0.29002 57.1891C11.2033 62.707 36.1935 75.2144 47.3765 81.1001C57.7258 86.5471 69.5033 85.483 75.1866 84.0306C76.0258 83.8161 76.8045 83.4349 77.528 82.9587C89.3341 75.1881 112.55 59.5002 119.11 53.5105C125.878 47.3304 116.289 39.8996 110.649 36.9567C100.471 32.9102 77.9827 23.5665 69.4483 18.5636C60.9139 13.5607 49.9516 15.7433 45.5372 17.46C32.662 26.2887 6.10228 44.6818 2.86509 47.6247Z" fill="#7872E2"/>
<path d="M22.7105 20.7479L41.2664 26.1194C42.8399 30.5685 45.4985 40.2805 46.3123 43.6987C47.0988 47.002 49.7305 47.9308 50.7071 47.768L54.9012 24.4918L100.64 3.33154L41.2664 19.2831L20.4317 13.5861C17.0461 18.7948 20.4317 19.9341 22.7105 20.7479Z" fill="#514DA3"/>
<path d="M73.495 31.6538L54.6136 24.4918L49.7305 47.6053C51.0869 44.0786 53.8974 36.309 54.2881 33.4442C54.8635 30.3895 56.7296 29.8633 57.5435 29.8633C61.7213 31.1655 70.7605 34.1604 73.495 35.723C76.2296 37.2856 78.1069 36.3741 78.7037 35.723C87.8189 27.3132 106.472 10.0378 108.165 8.21473C109.858 6.39169 109.088 3.92842 108.654 3.16882C99.9182 10.6563 82.187 26.8683 79.8431 29.8633C77.4992 32.8583 74.6344 32.3048 73.495 31.6538Z" fill="#9693E8"/>
<path d="M100.841 0.076185L20.4318 13.5862L41.2665 19.4459L100.19 3.49438L54.6137 24.4918C55.8118 25.3816 67.9609 29.8632 67.9609 29.8632C71.2767 31.3101 73.5058 31.9606 75.0452 32.1538C77.8693 32.5082 80.0181 29.9929 82.2819 28.2676C93.1495 19.9851 109.636 6.53829 108.816 3.49438C107.905 0.108739 103.119 -0.1951 100.841 0.076185Z" fill="#BE98EE"/>
<path d="M53.637 46.3029C51.814 48.1259 50.1646 47.9306 49.5677 47.6051C51.0869 43.2102 54.1253 33.7696 54.7764 31.8163C55.4275 29.863 57.001 29.4292 57.7063 29.7005L69.5886 33.9323C65.248 37.1335 55.4601 44.4799 53.637 46.3029Z" fill="#413E83"/>
</svg>
