<svg width="32" height="32" viewBox="0 0 32 32" fill="none" xmlns="http://www.w3.org/2000/svg">
<circle cx="16.016" cy="15.7918" r="14.84" stroke="#605F7C" stroke-width="0.848"/>
<path d="M14.025 21.9162C13.6584 21.9162 13.3613 21.6191 13.3613 21.2525V14.2135C13.3613 13.847 13.6584 13.5499 14.025 13.5499V13.5499C14.3915 13.5499 14.6886 13.847 14.6886 14.2135V21.2525C14.6886 21.6191 14.3915 21.9162 14.025 21.9162V21.9162ZM18.6706 14.2135C18.6706 13.847 18.3734 13.5499 18.0069 13.5499V13.5499C17.6404 13.5499 17.3432 13.847 17.3432 14.2135V21.2525C17.3432 21.6191 17.6404 21.9162 18.0069 21.9162V21.9162C18.3734 21.9162 18.6706 21.6191 18.6706 21.2525V14.2135ZM19.1708 7.31177C19.4702 7.31177 19.713 7.55456 19.713 7.85406V7.85406C19.713 8.15356 19.9558 8.39635 20.2553 8.39635H21.9519C22.4203 8.39635 22.7999 8.77601 22.7999 9.24435V12.0305C22.7999 12.2876 22.5914 12.4961 22.3343 12.4961V12.4961C22.0771 12.4961 21.8686 12.7046 21.8686 12.9618V23.4238C21.8686 23.8921 21.4889 24.2718 21.0206 24.2718H11.0113C10.5429 24.2718 10.1633 23.8921 10.1633 23.4238V12.9618C10.1633 12.7046 9.95478 12.4961 9.6976 12.4961V12.4961C9.44042 12.4961 9.23193 12.2876 9.23193 12.0305V9.24435C9.23193 8.77601 9.6116 8.39635 10.0799 8.39635H11.7764C12.0759 8.39635 12.3187 8.15356 12.3187 7.85406V7.85406C12.3187 7.55456 12.5614 7.31177 12.8609 7.31177H19.1708ZM20.5412 13.3441C20.5412 12.8758 20.1615 12.4961 19.6932 12.4961H12.3386C11.8702 12.4961 11.4906 12.8758 11.4906 13.3441V22.1358C11.4906 22.6041 11.8702 22.9838 12.3386 22.9838H19.6932C20.1615 22.9838 20.5412 22.6041 20.5412 22.1358V13.3441ZM18.928 9.68434C18.6285 9.68434 18.3857 9.44155 18.3857 9.14205V9.14205C18.3857 8.84256 18.1429 8.59976 17.8434 8.59976H14.1883C13.8888 8.59976 13.646 8.84256 13.646 9.14205V9.14205C13.646 9.44155 13.4032 9.68434 13.1037 9.68434H11.3142C10.8973 9.68434 10.5592 10.0224 10.5592 10.4393V10.4393C10.5592 10.8563 10.8973 11.1943 11.3142 11.1943H20.7176C21.1346 11.1943 21.4726 10.8563 21.4726 10.4393V10.4393C21.4726 10.0224 21.1346 9.68434 20.7176 9.68434H18.928Z" fill="#605F7C"/>
</svg>
