<svg width="12" height="12" viewBox="0 0 12 12" fill="none" xmlns="http://www.w3.org/2000/svg">
<path d="M11 6C11 8.76142 8.76142 11 6 11C3.23858 11 1 8.76142 1 6C1 3.23858 3.23858 1 6 1C8.76142 1 11 3.23858 11 6ZM2.75 6C2.75 7.79492 4.20507 9.25 6 9.25C7.79492 9.25 9.25 7.79492 9.25 6C9.25 4.20507 7.79492 2.75 6 2.75C4.20507 2.75 2.75 4.20507 2.75 6Z" fill="#33E0A1"/>
<path d="M6 1C6.65661 1 7.30679 1.12933 7.91342 1.3806C8.52004 1.63188 9.07124 2.00017 9.53553 2.46447C9.99983 2.92876 10.3681 3.47996 10.6194 4.08658C10.8707 4.69321 11 5.34339 11 6L9.25 6C9.25 5.5732 9.16594 5.15059 9.00261 4.75628C8.83928 4.36197 8.59989 4.00369 8.2981 3.7019C7.99631 3.40011 7.63803 3.16072 7.24372 2.99739C6.84941 2.83406 6.4268 2.75 6 2.75L6 1Z" fill="url(#paint0_linear_511_3519)"/>
<circle cx="6" cy="6" r="2" fill="#33E0A1"/>
<defs>
<linearGradient id="paint0_linear_511_3519" x1="6" y1="11" x2="6" y2="1" gradientUnits="userSpaceOnUse">
<stop offset="0.9999" stop-color="#33E0A1"/>
<stop offset="1" stop-color="#00AFAA" stop-opacity="0.01"/>
</linearGradient>
</defs>
</svg>
